<svg aria-hidden="true" focusable="false" role="img" viewBox="0 0 137 150" fill="none" xmlns="http://www.w3.org/2000/svg">
<path d="M41.5002 42.9995C41.5002 42.9995 46.0003 42.9995 70.5003 42.9995C95.0003 42.9995 106.5 63.4995 106.5 81.4995C106.5 99.4995 92.5003 119.5 70.5003 119.5C48.5003 119.5 41.5002 119.5 41.5002 119.5" stroke="currentColor" stroke-width="10" stroke-linecap="round" stroke-linejoin="round"/>
<path d="M41.5002 145C41.5002 145 73.5003 145 98.0003 145C122.5 145 132 127 132 106.5C132 85.9995 132 5.49956 132 5.49956H98.0003C98.0003 5.49956 61.5005 5.49949 41.5002 5.49956C21.5 5.49963 5.50018 22.4996 5.50024 42.9996C5.5003 63.4996 22.5002 81.4995 41.5002 81.4995C60.5002 81.4995 70.5003 81.4995 70.5003 81.4995" stroke="currentColor" stroke-width="10" stroke-linecap="round" stroke-linejoin="round"/>
</svg>
